<svg width="18" height="19" viewBox="0 0 18 19" fill="none" xmlns="http://www.w3.org/2000/svg">
<path fill-rule="evenodd" clip-rule="evenodd" d="M9.41918 11.2969C9.31662 11.0168 9.04736 10.8163 8.73214 10.8163C8.41692 10.8163 8.14762 11.0168 8.0451 11.2969L8.73214 11.7877L9.41918 11.2969ZM8.73214 14.7837C8.60423 14.8984 8.4592 14.9925 8.30229 15.0625L8.42906 15.5697H9.03519L9.16199 15.0625C9.00508 14.9925 8.86005 14.8984 8.73214 14.7837ZM14.7995 4.3543C14.8266 4.32874 14.8536 4.30303 14.8801 4.27649C16.0225 3.13415 16.254 1.51354 15.3972 0.656805C14.5405 -0.199933 12.9199 0.0315556 11.7775 1.1739C11.7486 1.20282 11.7205 1.23218 11.6928 1.26169C13.0389 1.91974 14.1355 3.01162 14.7995 4.3543ZM5.77153 1.26169C5.74373 1.23199 5.71547 1.20273 5.68677 1.1739C4.54439 0.031519 2.92383 -0.19997 2.06705 0.656769C1.21031 1.51351 1.4418 3.13411 2.58415 4.27645C2.61069 4.303 2.63768 4.3287 2.6647 4.35426C3.32874 3.01162 4.42541 1.91974 5.77153 1.26169ZM2.44239 16.8292C2.53384 16.9022 2.6269 16.9732 2.72148 17.042C4.33382 18.2147 6.46845 18.8605 8.73214 18.8605C10.9958 18.8605 13.1305 18.2147 14.7428 17.042C14.8374 16.9732 14.9304 16.9022 15.0219 16.8292C14.3281 14.4779 12.4625 12.6607 10.1429 12.128L9.28061 12.744V13.5586C9.28061 13.8611 9.52665 14.1071 9.82907 14.1071C10.1315 14.1071 10.3775 13.8611 10.3775 13.5586C10.3775 13.2557 10.6231 13.0102 10.926 13.0102C11.2289 13.0102 11.4745 13.2557 11.4745 13.5586C11.4745 14.3122 10.9651 14.9487 10.2726 15.1428L9.99551 16.2512C9.96584 16.3699 9.89736 16.4752 9.80095 16.5505C9.70454 16.6257 9.58574 16.6666 9.46343 16.6666H8.00086C7.87854 16.6666 7.75974 16.6257 7.66333 16.5504C7.56692 16.4752 7.49844 16.3698 7.46877 16.2512L7.19169 15.1428C6.49923 14.9487 5.98982 14.3122 5.98982 13.5586C5.98982 13.2557 6.23539 13.0102 6.53829 13.0102C6.84118 13.0102 7.08675 13.2557 7.08675 13.5586C7.08675 13.8611 7.33279 14.1071 7.63521 14.1071C7.93764 14.1071 8.18368 13.8611 8.18368 13.5586V12.744L7.32138 12.1281C5.00174 12.6607 3.1362 14.4779 2.44239 16.8292ZM6.96385 11.0833C5.58479 11.4198 4.31971 12.1496 3.29444 13.2195C2.52418 14.0234 1.93849 14.968 1.55939 15.9974C0.635558 14.9608 0.139526 13.7428 0.139526 12.4617C0.139526 10.5998 1.20117 8.85887 3.06467 7.64501V7.3427C3.06467 4.21766 5.6071 1.67523 8.73214 1.67523C11.8572 1.67523 14.3996 4.21766 14.3996 7.3427V7.64501C16.2631 8.85887 17.3248 10.5998 17.3248 12.4617C17.3248 13.7428 16.8287 14.9608 15.9049 15.9974C15.5258 14.968 14.9401 14.0234 14.1698 13.2195C13.1445 12.1496 11.8795 11.4198 10.5004 11.0833C10.2944 10.2994 9.57985 9.71938 8.73214 9.71938C7.88443 9.71938 7.16986 10.2994 6.96385 11.0833ZM11.2916 6.79423C10.9887 6.79423 10.7432 7.0398 10.7432 7.3427V8.43963C10.7432 8.74253 10.9887 8.98809 11.2916 8.98809C11.5945 8.98809 11.8401 8.74253 11.8401 8.43963V7.3427C11.8401 7.0398 11.5945 6.79423 11.2916 6.79423ZM6.17264 6.79423C5.86974 6.79423 5.62417 7.0398 5.62417 7.3427V8.43963C5.62417 8.74253 5.86974 8.98809 6.17264 8.98809C6.47554 8.98809 6.7211 8.74253 6.7211 8.43963V7.3427C6.7211 7.0398 6.47554 6.79423 6.17264 6.79423Z" fill="white"/>
</svg>
